<?xml version="1.0" encoding="utf-8"?>
<!-- Generator: Adobe Illustrator 24.1.2, SVG Export Plug-In . SVG Version: 6.00 Build 0)  -->
<svg version="1.1" id="Layer_1" xmlns="http://www.w3.org/2000/svg" xmlns:xlink="http://www.w3.org/1999/xlink" x="0px" y="0px"
	 viewBox="0 0 1000 1000" style="enable-background:new 0 0 1000 1000;" xml:space="preserve">
<style type="text/css">
	.st0{fill:#616160;}
	.st1{fill:#FFFFFF;}
	.st2{fill:#2D2D28;}
	.st3{font-family:'Poppins-ExtraLight';}
	.st4{font-size:88px;}
</style>
<g>
	<path class="st0" d="M506.8,606.6c-2.4-3.8-1.1-5.3,3.1-5.7c7.2-0.7,14.1-2.4,20.8-5.1c6-2.4,9.1-6.9,10.8-12.8
		c3.2-11.2-0.5-21.7-3.2-32.3c-0.4-1.6-1.7-1.8-3.1-1.8c-25.5,0-51-0.1-76.5-0.1c-1.9,0-3.1,0.4-3.6,2.5
		c-3.2,11.9-4.4,23.9-0.8,35.9c1.6,5.2,5.1,8.4,10,10.4c5.4,2.2,11.2,3.2,17,3.9c1.8,0.2,4.5-0.4,4.1,2.9c-0.3,2.8-2.7,2-4.4,2
		c-23.3,0.1-46.7,0-70,0c-5.2,0-10.3,0-15.5,0c-1.4,0-3.2,0.3-3.5-1.8c-0.3-2.2,1.2-2.8,3-3.1c20.6-3.9,32-17.6,38.9-36.3
		c17.3-47.4,34.6-94.8,52.1-142.1c1.6-4.4,2-8.3,0.2-12.9c-18.1-48-36-96-54-144c-0.5-1.4-1.2-2.7-2.3-5.1
		c-3.2,9.1-6.2,17.3-9.1,25.5c-28.3,82.2-56.7,164.3-84.8,246.5c-4.9,14.3-8.9,28.9-6.7,44.5c1.5,10.9,6.6,18.2,17.7,20.9
		c4.9,1.2,9.7,2.2,14.7,2.6c1.9,0.1,3.8,0.3,3.6,3c-0.2,2.5-2.1,2.2-3.7,2.2c-31.3,0-62.6,0-94,0c-1.7,0-3.9,0.4-4-2.4
		c-0.1-2.3,1.3-2.8,3.1-3.1c20.1-3.2,31.7-16.7,40.5-33.7c11.9-22.7,19.8-46.9,28.2-70.9c31.1-88.9,62.3-177.8,93.4-266.8
		c1.2-3.4,31-3.5,32.2-0.5c13.6,36.2,27.4,72.2,41.1,108.3c2.4,6.3,4.9,12.7,7.9,20.3c2.6-7.3,4.8-13.3,6.8-19.2
		c8.8-25.2,17.6-50.3,26.2-75.5c1.8-5.2,29.6-5.3,31.6,0c35.6,94.1,71.3,188.1,107.1,282.1c3.9,10.3,7,20.8,12.1,30.6
		c8.4,16.1,21,25.4,39.5,26.3c1.2,0.1,2.8-0.5,3.3,1.4c0.5,1.8-0.4,2.9-2,3.5c-1.5,1-3.2,0.5-4.9,0.5c-72.6,0-145.3,0-217.9,0
		C510.1,607.2,508.3,607.7,506.8,606.6z"/>
	<path class="st1" d="M545,289.4c5.4,14.2,10.4,27.2,15.3,40.3c24.8,66.2,49.6,132.5,74.3,198.7c4.6,12.3,9.7,24.4,12.5,37.3
		c0.8,3.6,1.6,7.2,1.3,10.9c-1,16.8-7.1,20.7-21.7,22.9c-7.9,1.2-14.9-3.9-21-9c-9.3-7.8-14.7-18.3-19-29.5
		c-23.1-60.8-46.1-121.7-69.2-182.5c-1.3-3.5-1.4-6.5-0.2-10.1c8.7-24.6,17.1-49.4,25.6-74.1C543.5,293.2,544,292,545,289.4z"/>
	<path class="st1" d="M495.1,434.5c3.9,10.3,7.5,19.9,11.1,29.5c8.9,23.7,17.7,47.4,26.7,71c1.2,3.1,1.3,4.2-2.7,4.1
		c-22.3-0.2-44.6-0.1-66.9-0.1c-3.1,0-4.6-0.1-3.2-4c11.3-32.3,22.4-64.8,33.6-97.2C493.9,437,494.4,436.2,495.1,434.5z"/>
</g>
<text transform="matrix(1 0 0 1 174.4194 706.6153)" class="st2 st3 st4">Asal Aesthetics</text>
</svg>
